<mxfile host="localhost" modified="2024-05-09T18:53:08.179Z" agent="Mozilla/5.0 (Macintosh; Intel Mac OS X 10.15; rv:125.0) Gecko/20100101 Firefox/125.0" etag="_SR-IMviUw5zArCMempV" version="24.3.1" type="device">
  <diagram name="Page-1" id="GYAALVoH9YkTWORxXSfS">
    <mxGraphModel dx="2924" dy="2257" grid="1" gridSize="10" guides="1" tooltips="1" connect="1" arrows="1" fold="1" page="1" pageScale="1" pageWidth="850" pageHeight="1100" math="0" shadow="0">
      <root>
        <mxCell id="0" />
        <mxCell id="1" parent="0" />
        <mxCell id="zr9PtpO677NZZhGRrjCr-151" value="gameboard&lt;br&gt;./src/gameboard&lt;br&gt;[port:5000]" style="rounded=1;whiteSpace=wrap;html=1;imageWidth=24;glass=0;shadow=1;" parent="1" vertex="1">
          <mxGeometry x="172" y="-737" width="175" height="75" as="geometry" />
        </mxCell>
        <mxCell id="zr9PtpO677NZZhGRrjCr-152" value="" style="endArrow=classic;html=1;rounded=0;exitX=1;exitY=0.5;exitDx=0;exitDy=0;" parent="1" source="zr9PtpO677NZZhGRrjCr-238" edge="1">
          <mxGeometry width="50" height="50" relative="1" as="geometry">
            <mxPoint x="-100" y="-441" as="sourcePoint" />
            <mxPoint x="-120" y="-481" as="targetPoint" />
          </mxGeometry>
        </mxCell>
        <mxCell id="zr9PtpO677NZZhGRrjCr-153" value="" style="endArrow=classic;html=1;rounded=0;exitX=0;exitY=0;exitDx=0;exitDy=0;entryX=1;entryY=1;entryDx=0;entryDy=0;" parent="1" source="zr9PtpO677NZZhGRrjCr-240" target="zr9PtpO677NZZhGRrjCr-238" edge="1">
          <mxGeometry width="50" height="50" relative="1" as="geometry">
            <mxPoint x="-170" y="-451" as="sourcePoint" />
            <mxPoint x="-344" y="-677" as="targetPoint" />
          </mxGeometry>
        </mxCell>
        <mxCell id="zr9PtpO677NZZhGRrjCr-154" value="" style="endArrow=classic;html=1;rounded=0;exitX=1;exitY=0.25;exitDx=0;exitDy=0;entryX=0;entryY=0.25;entryDx=0;entryDy=0;" parent="1" source="zr9PtpO677NZZhGRrjCr-241" target="zr9PtpO677NZZhGRrjCr-240" edge="1">
          <mxGeometry width="50" height="50" relative="1" as="geometry">
            <mxPoint x="-290" y="-558" as="sourcePoint" />
            <mxPoint x="-150" y="-457" as="targetPoint" />
          </mxGeometry>
        </mxCell>
        <mxCell id="zr9PtpO677NZZhGRrjCr-155" value="" style="endArrow=classic;html=1;rounded=0;entryX=1;entryY=0.75;entryDx=0;entryDy=0;exitX=0;exitY=0.75;exitDx=0;exitDy=0;" parent="1" source="zr9PtpO677NZZhGRrjCr-240" target="zr9PtpO677NZZhGRrjCr-241" edge="1">
          <mxGeometry width="50" height="50" relative="1" as="geometry">
            <mxPoint x="-125" y="-343" as="sourcePoint" />
            <mxPoint x="-290" y="-528" as="targetPoint" />
          </mxGeometry>
        </mxCell>
        <mxCell id="zr9PtpO677NZZhGRrjCr-156" value="" style="endArrow=classic;html=1;rounded=0;exitX=0;exitY=0.5;exitDx=0;exitDy=0;" parent="1" source="zr9PtpO677NZZhGRrjCr-151" edge="1">
          <mxGeometry width="50" height="50" relative="1" as="geometry">
            <mxPoint x="-69" y="-666" as="sourcePoint" />
            <mxPoint x="10" y="-481" as="targetPoint" />
          </mxGeometry>
        </mxCell>
        <mxCell id="zr9PtpO677NZZhGRrjCr-157" value="" style="endArrow=classic;html=1;rounded=0;exitX=1;exitY=0;exitDx=0;exitDy=0;entryX=0;entryY=1;entryDx=0;entryDy=0;" parent="1" source="zr9PtpO677NZZhGRrjCr-240" target="zr9PtpO677NZZhGRrjCr-151" edge="1">
          <mxGeometry width="50" height="50" relative="1" as="geometry">
            <mxPoint x="96" y="-451" as="sourcePoint" />
            <mxPoint x="170" y="-681" as="targetPoint" />
          </mxGeometry>
        </mxCell>
        <mxCell id="zr9PtpO677NZZhGRrjCr-158" value="" style="endArrow=classic;html=1;rounded=0;exitX=1;exitY=0.75;exitDx=0;exitDy=0;" parent="1" source="zr9PtpO677NZZhGRrjCr-240" edge="1">
          <mxGeometry width="50" height="50" relative="1" as="geometry">
            <mxPoint x="-205" y="-656" as="sourcePoint" />
            <mxPoint x="170" y="-420" as="targetPoint" />
          </mxGeometry>
        </mxCell>
        <mxCell id="zr9PtpO677NZZhGRrjCr-159" value="" style="endArrow=classic;html=1;rounded=0;exitX=0;exitY=0.25;exitDx=0;exitDy=0;entryX=1;entryY=0.25;entryDx=0;entryDy=0;" parent="1" source="zr9PtpO677NZZhGRrjCr-239" target="zr9PtpO677NZZhGRrjCr-240" edge="1">
          <mxGeometry width="50" height="50" relative="1" as="geometry">
            <mxPoint x="-40" y="-441" as="sourcePoint" />
            <mxPoint x="-20" y="-455" as="targetPoint" />
          </mxGeometry>
        </mxCell>
        <mxCell id="zr9PtpO677NZZhGRrjCr-160" value="" style="endArrow=classic;html=1;rounded=0;exitX=0.175;exitY=1.033;exitDx=0;exitDy=0;exitPerimeter=0;entryX=1;entryY=0.5;entryDx=0;entryDy=0;" parent="1" source="zr9PtpO677NZZhGRrjCr-240" target="zr9PtpO677NZZhGRrjCr-244" edge="1">
          <mxGeometry width="50" height="50" relative="1" as="geometry">
            <mxPoint x="-290" y="-360" as="sourcePoint" />
            <mxPoint x="-250" y="-191" as="targetPoint" />
          </mxGeometry>
        </mxCell>
        <mxCell id="zr9PtpO677NZZhGRrjCr-161" value="" style="endArrow=classic;html=1;rounded=0;entryX=0;entryY=1;entryDx=0;entryDy=0;exitX=1;exitY=0;exitDx=0;exitDy=0;" parent="1" source="zr9PtpO677NZZhGRrjCr-244" target="zr9PtpO677NZZhGRrjCr-240" edge="1">
          <mxGeometry width="50" height="50" relative="1" as="geometry">
            <mxPoint x="-125" y="-145" as="sourcePoint" />
            <mxPoint x="-290" y="-330" as="targetPoint" />
          </mxGeometry>
        </mxCell>
        <mxCell id="zr9PtpO677NZZhGRrjCr-162" value="" style="endArrow=classic;html=1;rounded=0;exitX=0.823;exitY=1.04;exitDx=0;exitDy=0;entryX=0;entryY=0.5;entryDx=0;entryDy=0;exitPerimeter=0;" parent="1" source="zr9PtpO677NZZhGRrjCr-240" target="zr9PtpO677NZZhGRrjCr-242" edge="1">
          <mxGeometry width="50" height="50" relative="1" as="geometry">
            <mxPoint x="-27" y="-381" as="sourcePoint" />
            <mxPoint x="168" y="-166" as="targetPoint" />
          </mxGeometry>
        </mxCell>
        <mxCell id="zr9PtpO677NZZhGRrjCr-163" value="" style="endArrow=classic;html=1;rounded=0;entryX=1;entryY=1;entryDx=0;entryDy=0;exitX=0;exitY=0;exitDx=0;exitDy=0;" parent="1" source="zr9PtpO677NZZhGRrjCr-242" target="zr9PtpO677NZZhGRrjCr-240" edge="1">
          <mxGeometry width="50" height="50" relative="1" as="geometry">
            <mxPoint x="140" y="-243" as="sourcePoint" />
            <mxPoint x="-25" y="-428" as="targetPoint" />
          </mxGeometry>
        </mxCell>
        <mxCell id="zr9PtpO677NZZhGRrjCr-164" value="Pub" style="swimlane;fontStyle=0;childLayout=stackLayout;horizontal=1;startSize=30;horizontalStack=0;resizeParent=1;resizeParentMax=0;resizeLast=0;collapsible=1;marginBottom=0;whiteSpace=wrap;html=1;" parent="1" vertex="1">
          <mxGeometry x="-517.5" y="-988" width="140" height="180" as="geometry" />
        </mxCell>
        <mxCell id="zr9PtpO677NZZhGRrjCr-165" value="paddle1/action" style="text;strokeColor=none;fillColor=none;align=left;verticalAlign=middle;spacingLeft=4;spacingRight=4;overflow=hidden;points=[[0,0.5],[1,0.5]];portConstraint=eastwest;rotatable=0;whiteSpace=wrap;html=1;" parent="zr9PtpO677NZZhGRrjCr-164" vertex="1">
          <mxGeometry y="30" width="140" height="30" as="geometry" />
        </mxCell>
        <mxCell id="zr9PtpO677NZZhGRrjCr-166" value="paddle1/frame" style="text;strokeColor=none;fillColor=none;align=left;verticalAlign=middle;spacingLeft=4;spacingRight=4;overflow=hidden;points=[[0,0.5],[1,0.5]];portConstraint=eastwest;rotatable=0;whiteSpace=wrap;html=1;" parent="zr9PtpO677NZZhGRrjCr-164" vertex="1">
          <mxGeometry y="60" width="140" height="30" as="geometry" />
        </mxCell>
        <mxCell id="zr9PtpO677NZZhGRrjCr-167" value="paddle2/action" style="text;strokeColor=none;fillColor=none;align=left;verticalAlign=middle;spacingLeft=4;spacingRight=4;overflow=hidden;points=[[0,0.5],[1,0.5]];portConstraint=eastwest;rotatable=0;whiteSpace=wrap;html=1;" parent="zr9PtpO677NZZhGRrjCr-164" vertex="1">
          <mxGeometry y="90" width="140" height="30" as="geometry" />
        </mxCell>
        <mxCell id="zr9PtpO677NZZhGRrjCr-168" value="paddle2/frame&lt;br&gt;" style="text;strokeColor=none;fillColor=none;align=left;verticalAlign=middle;spacingLeft=4;spacingRight=4;overflow=hidden;points=[[0,0.5],[1,0.5]];portConstraint=eastwest;rotatable=0;whiteSpace=wrap;html=1;" parent="zr9PtpO677NZZhGRrjCr-164" vertex="1">
          <mxGeometry y="120" width="140" height="30" as="geometry" />
        </mxCell>
        <mxCell id="zr9PtpO677NZZhGRrjCr-169" value="ai/activation" style="text;strokeColor=none;fillColor=none;align=left;verticalAlign=middle;spacingLeft=4;spacingRight=4;overflow=hidden;points=[[0,0.5],[1,0.5]];portConstraint=eastwest;rotatable=0;whiteSpace=wrap;html=1;" parent="zr9PtpO677NZZhGRrjCr-164" vertex="1">
          <mxGeometry y="150" width="140" height="30" as="geometry" />
        </mxCell>
        <mxCell id="zr9PtpO677NZZhGRrjCr-170" value="Sub" style="swimlane;fontStyle=0;childLayout=stackLayout;horizontal=1;startSize=30;horizontalStack=0;resizeParent=1;resizeParentMax=0;resizeLast=0;collapsible=1;marginBottom=0;whiteSpace=wrap;html=1;" parent="1" vertex="1">
          <mxGeometry x="-367.5" y="-988" width="140" height="240" as="geometry" />
        </mxCell>
        <mxCell id="zr9PtpO677NZZhGRrjCr-171" value="puck/position" style="text;strokeColor=none;fillColor=none;align=left;verticalAlign=middle;spacingLeft=4;spacingRight=4;overflow=hidden;points=[[0,0.5],[1,0.5]];portConstraint=eastwest;rotatable=0;whiteSpace=wrap;html=1;" parent="zr9PtpO677NZZhGRrjCr-170" vertex="1">
          <mxGeometry y="30" width="140" height="30" as="geometry" />
        </mxCell>
        <mxCell id="zr9PtpO677NZZhGRrjCr-172" value="player1/score" style="text;strokeColor=none;fillColor=none;align=left;verticalAlign=middle;spacingLeft=4;spacingRight=4;overflow=hidden;points=[[0,0.5],[1,0.5]];portConstraint=eastwest;rotatable=0;whiteSpace=wrap;html=1;" parent="zr9PtpO677NZZhGRrjCr-170" vertex="1">
          <mxGeometry y="60" width="140" height="30" as="geometry" />
        </mxCell>
        <mxCell id="zr9PtpO677NZZhGRrjCr-173" value="player2/score" style="text;strokeColor=none;fillColor=none;align=left;verticalAlign=middle;spacingLeft=4;spacingRight=4;overflow=hidden;points=[[0,0.5],[1,0.5]];portConstraint=eastwest;rotatable=0;whiteSpace=wrap;html=1;" parent="zr9PtpO677NZZhGRrjCr-170" vertex="1">
          <mxGeometry y="90" width="140" height="30" as="geometry" />
        </mxCell>
        <mxCell id="zr9PtpO677NZZhGRrjCr-174" value="paddle1/position" style="text;strokeColor=none;fillColor=none;align=left;verticalAlign=middle;spacingLeft=4;spacingRight=4;overflow=hidden;points=[[0,0.5],[1,0.5]];portConstraint=eastwest;rotatable=0;whiteSpace=wrap;html=1;" parent="zr9PtpO677NZZhGRrjCr-170" vertex="1">
          <mxGeometry y="120" width="140" height="30" as="geometry" />
        </mxCell>
        <mxCell id="zr9PtpO677NZZhGRrjCr-175" value="paddle2/position" style="text;strokeColor=none;fillColor=none;align=left;verticalAlign=middle;spacingLeft=4;spacingRight=4;overflow=hidden;points=[[0,0.5],[1,0.5]];portConstraint=eastwest;rotatable=0;whiteSpace=wrap;html=1;" parent="zr9PtpO677NZZhGRrjCr-170" vertex="1">
          <mxGeometry y="150" width="140" height="30" as="geometry" />
        </mxCell>
        <mxCell id="zr9PtpO677NZZhGRrjCr-176" value="game/level" style="text;strokeColor=none;fillColor=none;align=left;verticalAlign=middle;spacingLeft=4;spacingRight=4;overflow=hidden;points=[[0,0.5],[1,0.5]];portConstraint=eastwest;rotatable=0;whiteSpace=wrap;html=1;" parent="zr9PtpO677NZZhGRrjCr-170" vertex="1">
          <mxGeometry y="180" width="140" height="30" as="geometry" />
        </mxCell>
        <mxCell id="zr9PtpO677NZZhGRrjCr-177" value="game/frame" style="text;strokeColor=none;fillColor=none;align=left;verticalAlign=middle;spacingLeft=4;spacingRight=4;overflow=hidden;points=[[0,0.5],[1,0.5]];portConstraint=eastwest;rotatable=0;whiteSpace=wrap;html=1;" parent="zr9PtpO677NZZhGRrjCr-170" vertex="1">
          <mxGeometry y="210" width="140" height="30" as="geometry" />
        </mxCell>
        <mxCell id="zr9PtpO677NZZhGRrjCr-178" value="Pub" style="swimlane;fontStyle=0;childLayout=stackLayout;horizontal=1;startSize=30;horizontalStack=0;resizeParent=1;resizeParentMax=0;resizeLast=0;collapsible=1;marginBottom=0;whiteSpace=wrap;html=1;" parent="1" vertex="1">
          <mxGeometry x="-760" y="-476" width="140" height="270" as="geometry" />
        </mxCell>
        <mxCell id="zr9PtpO677NZZhGRrjCr-179" value="puck/position" style="text;strokeColor=none;fillColor=none;align=left;verticalAlign=middle;spacingLeft=4;spacingRight=4;overflow=hidden;points=[[0,0.5],[1,0.5]];portConstraint=eastwest;rotatable=0;whiteSpace=wrap;html=1;" parent="zr9PtpO677NZZhGRrjCr-178" vertex="1">
          <mxGeometry y="30" width="140" height="30" as="geometry" />
        </mxCell>
        <mxCell id="zr9PtpO677NZZhGRrjCr-180" value="paddle1/position" style="text;strokeColor=none;fillColor=none;align=left;verticalAlign=middle;spacingLeft=4;spacingRight=4;overflow=hidden;points=[[0,0.5],[1,0.5]];portConstraint=eastwest;rotatable=0;whiteSpace=wrap;html=1;" parent="zr9PtpO677NZZhGRrjCr-178" vertex="1">
          <mxGeometry y="60" width="140" height="30" as="geometry" />
        </mxCell>
        <mxCell id="zr9PtpO677NZZhGRrjCr-181" value="paddle2/position" style="text;strokeColor=none;fillColor=none;align=left;verticalAlign=middle;spacingLeft=4;spacingRight=4;overflow=hidden;points=[[0,0.5],[1,0.5]];portConstraint=eastwest;rotatable=0;whiteSpace=wrap;html=1;" parent="zr9PtpO677NZZhGRrjCr-178" vertex="1">
          <mxGeometry y="90" width="140" height="30" as="geometry" />
        </mxCell>
        <mxCell id="zr9PtpO677NZZhGRrjCr-182" value="player1/score" style="text;strokeColor=none;fillColor=none;align=left;verticalAlign=middle;spacingLeft=4;spacingRight=4;overflow=hidden;points=[[0,0.5],[1,0.5]];portConstraint=eastwest;rotatable=0;whiteSpace=wrap;html=1;" parent="zr9PtpO677NZZhGRrjCr-178" vertex="1">
          <mxGeometry y="120" width="140" height="30" as="geometry" />
        </mxCell>
        <mxCell id="zr9PtpO677NZZhGRrjCr-183" value="player2/score" style="text;strokeColor=none;fillColor=none;align=left;verticalAlign=middle;spacingLeft=4;spacingRight=4;overflow=hidden;points=[[0,0.5],[1,0.5]];portConstraint=eastwest;rotatable=0;whiteSpace=wrap;html=1;" parent="zr9PtpO677NZZhGRrjCr-178" vertex="1">
          <mxGeometry y="150" width="140" height="30" as="geometry" />
        </mxCell>
        <mxCell id="zr9PtpO677NZZhGRrjCr-184" value="game/frame" style="text;strokeColor=none;fillColor=none;align=left;verticalAlign=middle;spacingLeft=4;spacingRight=4;overflow=hidden;points=[[0,0.5],[1,0.5]];portConstraint=eastwest;rotatable=0;whiteSpace=wrap;html=1;" parent="zr9PtpO677NZZhGRrjCr-178" vertex="1">
          <mxGeometry y="180" width="140" height="30" as="geometry" />
        </mxCell>
        <mxCell id="zr9PtpO677NZZhGRrjCr-185" value="game/level" style="text;strokeColor=none;fillColor=none;align=left;verticalAlign=middle;spacingLeft=4;spacingRight=4;overflow=hidden;points=[[0,0.5],[1,0.5]];portConstraint=eastwest;rotatable=0;whiteSpace=wrap;html=1;" parent="zr9PtpO677NZZhGRrjCr-178" vertex="1">
          <mxGeometry y="210" width="140" height="30" as="geometry" />
        </mxCell>
        <mxCell id="zr9PtpO677NZZhGRrjCr-186" value="game/state" style="text;strokeColor=none;fillColor=none;align=left;verticalAlign=middle;spacingLeft=4;spacingRight=4;overflow=hidden;points=[[0,0.5],[1,0.5]];portConstraint=eastwest;rotatable=0;whiteSpace=wrap;html=1;" parent="zr9PtpO677NZZhGRrjCr-178" vertex="1">
          <mxGeometry y="240" width="140" height="30" as="geometry" />
        </mxCell>
        <mxCell id="zr9PtpO677NZZhGRrjCr-187" value="Sub" style="swimlane;fontStyle=0;childLayout=stackLayout;horizontal=1;startSize=30;horizontalStack=0;resizeParent=1;resizeParentMax=0;resizeLast=0;collapsible=1;marginBottom=0;whiteSpace=wrap;html=1;" parent="1" vertex="1">
          <mxGeometry x="-610" y="-476" width="140" height="210" as="geometry" />
        </mxCell>
        <mxCell id="zr9PtpO677NZZhGRrjCr-188" value="paddle1/action" style="text;strokeColor=none;fillColor=none;align=left;verticalAlign=middle;spacingLeft=4;spacingRight=4;overflow=hidden;points=[[0,0.5],[1,0.5]];portConstraint=eastwest;rotatable=0;whiteSpace=wrap;html=1;" parent="zr9PtpO677NZZhGRrjCr-187" vertex="1">
          <mxGeometry y="30" width="140" height="30" as="geometry" />
        </mxCell>
        <mxCell id="zr9PtpO677NZZhGRrjCr-189" value="paddle2/action" style="text;strokeColor=none;fillColor=none;align=left;verticalAlign=middle;spacingLeft=4;spacingRight=4;overflow=hidden;points=[[0,0.5],[1,0.5]];portConstraint=eastwest;rotatable=0;whiteSpace=wrap;html=1;" parent="zr9PtpO677NZZhGRrjCr-187" vertex="1">
          <mxGeometry y="60" width="140" height="30" as="geometry" />
        </mxCell>
        <mxCell id="zr9PtpO677NZZhGRrjCr-190" value="paddle1/frame" style="text;strokeColor=none;fillColor=none;align=left;verticalAlign=middle;spacingLeft=4;spacingRight=4;overflow=hidden;points=[[0,0.5],[1,0.5]];portConstraint=eastwest;rotatable=0;whiteSpace=wrap;html=1;" parent="zr9PtpO677NZZhGRrjCr-187" vertex="1">
          <mxGeometry y="90" width="140" height="30" as="geometry" />
        </mxCell>
        <mxCell id="zr9PtpO677NZZhGRrjCr-191" value="paddle2/frame" style="text;strokeColor=none;fillColor=none;align=left;verticalAlign=middle;spacingLeft=4;spacingRight=4;overflow=hidden;points=[[0,0.5],[1,0.5]];portConstraint=eastwest;rotatable=0;whiteSpace=wrap;html=1;" parent="zr9PtpO677NZZhGRrjCr-187" vertex="1">
          <mxGeometry y="120" width="140" height="30" as="geometry" />
        </mxCell>
        <mxCell id="zr9PtpO677NZZhGRrjCr-192" value="motion/position" style="text;strokeColor=none;fillColor=none;align=left;verticalAlign=middle;spacingLeft=4;spacingRight=4;overflow=hidden;points=[[0,0.5],[1,0.5]];portConstraint=eastwest;rotatable=0;whiteSpace=wrap;html=1;" parent="zr9PtpO677NZZhGRrjCr-187" vertex="1">
          <mxGeometry y="150" width="140" height="30" as="geometry" />
        </mxCell>
        <mxCell id="zr9PtpO677NZZhGRrjCr-193" value="motion/presence" style="text;strokeColor=none;fillColor=none;align=left;verticalAlign=middle;spacingLeft=4;spacingRight=4;overflow=hidden;points=[[0,0.5],[1,0.5]];portConstraint=eastwest;rotatable=0;whiteSpace=wrap;html=1;" parent="zr9PtpO677NZZhGRrjCr-187" vertex="1">
          <mxGeometry y="180" width="140" height="30" as="geometry" />
        </mxCell>
        <mxCell id="zr9PtpO677NZZhGRrjCr-194" value="Pub" style="swimlane;fontStyle=0;childLayout=stackLayout;horizontal=1;startSize=30;horizontalStack=0;resizeParent=1;resizeParentMax=0;resizeLast=0;collapsible=1;marginBottom=0;whiteSpace=wrap;html=1;" parent="1" vertex="1">
          <mxGeometry x="-521.5" y="-133" width="140" height="120" as="geometry" />
        </mxCell>
        <mxCell id="zr9PtpO677NZZhGRrjCr-195" value="motion/position" style="text;strokeColor=none;fillColor=none;align=left;verticalAlign=middle;spacingLeft=4;spacingRight=4;overflow=hidden;points=[[0,0.5],[1,0.5]];portConstraint=eastwest;rotatable=0;whiteSpace=wrap;html=1;" parent="zr9PtpO677NZZhGRrjCr-194" vertex="1">
          <mxGeometry y="30" width="140" height="30" as="geometry" />
        </mxCell>
        <mxCell id="zr9PtpO677NZZhGRrjCr-196" value="motion/presence" style="text;strokeColor=none;fillColor=none;align=left;verticalAlign=middle;spacingLeft=4;spacingRight=4;overflow=hidden;points=[[0,0.5],[1,0.5]];portConstraint=eastwest;rotatable=0;whiteSpace=wrap;html=1;" parent="zr9PtpO677NZZhGRrjCr-194" vertex="1">
          <mxGeometry y="60" width="140" height="30" as="geometry" />
        </mxCell>
        <mxCell id="zr9PtpO677NZZhGRrjCr-197" value="depth/feed" style="text;strokeColor=none;fillColor=none;align=left;verticalAlign=middle;spacingLeft=4;spacingRight=4;overflow=hidden;points=[[0,0.5],[1,0.5]];portConstraint=eastwest;rotatable=0;whiteSpace=wrap;html=1;" parent="zr9PtpO677NZZhGRrjCr-194" vertex="1">
          <mxGeometry y="90" width="140" height="30" as="geometry" />
        </mxCell>
        <mxCell id="zr9PtpO677NZZhGRrjCr-198" value="Sub" style="swimlane;fontStyle=0;childLayout=stackLayout;horizontal=1;startSize=30;horizontalStack=0;resizeParent=1;resizeParentMax=0;resizeLast=0;collapsible=1;marginBottom=0;whiteSpace=wrap;html=1;" parent="1" vertex="1">
          <mxGeometry x="-371.5" y="-133" width="140" height="90" as="geometry" />
        </mxCell>
        <mxCell id="zr9PtpO677NZZhGRrjCr-199" value="game/level" style="text;strokeColor=none;fillColor=none;align=left;verticalAlign=middle;spacingLeft=4;spacingRight=4;overflow=hidden;points=[[0,0.5],[1,0.5]];portConstraint=eastwest;rotatable=0;whiteSpace=wrap;html=1;" parent="zr9PtpO677NZZhGRrjCr-198" vertex="1">
          <mxGeometry y="30" width="140" height="30" as="geometry" />
        </mxCell>
        <mxCell id="zr9PtpO677NZZhGRrjCr-200" value="game/state" style="text;strokeColor=none;fillColor=none;align=left;verticalAlign=middle;spacingLeft=4;spacingRight=4;overflow=hidden;points=[[0,0.5],[1,0.5]];portConstraint=eastwest;rotatable=0;whiteSpace=wrap;html=1;" parent="zr9PtpO677NZZhGRrjCr-198" vertex="1">
          <mxGeometry y="60" width="140" height="30" as="geometry" />
        </mxCell>
        <mxCell id="zr9PtpO677NZZhGRrjCr-201" value="Pub" style="swimlane;fontStyle=0;childLayout=stackLayout;horizontal=1;startSize=30;horizontalStack=0;resizeParent=1;resizeParentMax=0;resizeLast=0;collapsible=1;marginBottom=0;whiteSpace=wrap;html=1;" parent="1" vertex="1">
          <mxGeometry x="114.5" y="-1018" width="140" height="60" as="geometry" />
        </mxCell>
        <mxCell id="zr9PtpO677NZZhGRrjCr-202" value="Sub" style="swimlane;fontStyle=0;childLayout=stackLayout;horizontal=1;startSize=30;horizontalStack=0;resizeParent=1;resizeParentMax=0;resizeLast=0;collapsible=1;marginBottom=0;whiteSpace=wrap;html=1;" parent="1" vertex="1">
          <mxGeometry x="264.5" y="-1018" width="140" height="270" as="geometry" />
        </mxCell>
        <mxCell id="zr9PtpO677NZZhGRrjCr-203" value="player1/score" style="text;strokeColor=none;fillColor=none;align=left;verticalAlign=middle;spacingLeft=4;spacingRight=4;overflow=hidden;points=[[0,0.5],[1,0.5]];portConstraint=eastwest;rotatable=0;whiteSpace=wrap;html=1;" parent="zr9PtpO677NZZhGRrjCr-202" vertex="1">
          <mxGeometry y="30" width="140" height="30" as="geometry" />
        </mxCell>
        <mxCell id="zr9PtpO677NZZhGRrjCr-204" value="player2/score" style="text;strokeColor=none;fillColor=none;align=left;verticalAlign=middle;spacingLeft=4;spacingRight=4;overflow=hidden;points=[[0,0.5],[1,0.5]];portConstraint=eastwest;rotatable=0;whiteSpace=wrap;html=1;" parent="zr9PtpO677NZZhGRrjCr-202" vertex="1">
          <mxGeometry y="60" width="140" height="30" as="geometry" />
        </mxCell>
        <mxCell id="zr9PtpO677NZZhGRrjCr-205" value="game/level" style="text;strokeColor=none;fillColor=none;align=left;verticalAlign=middle;spacingLeft=4;spacingRight=4;overflow=hidden;points=[[0,0.5],[1,0.5]];portConstraint=eastwest;rotatable=0;whiteSpace=wrap;html=1;" parent="zr9PtpO677NZZhGRrjCr-202" vertex="1">
          <mxGeometry y="90" width="140" height="30" as="geometry" />
        </mxCell>
        <mxCell id="zr9PtpO677NZZhGRrjCr-206" value="game/state" style="text;strokeColor=none;fillColor=none;align=left;verticalAlign=middle;spacingLeft=4;spacingRight=4;overflow=hidden;points=[[0,0.5],[1,0.5]];portConstraint=eastwest;rotatable=0;whiteSpace=wrap;html=1;" parent="zr9PtpO677NZZhGRrjCr-202" vertex="1">
          <mxGeometry y="120" width="140" height="30" as="geometry" />
        </mxCell>
        <mxCell id="zr9PtpO677NZZhGRrjCr-207" value="puck/position" style="text;strokeColor=none;fillColor=none;align=left;verticalAlign=middle;spacingLeft=4;spacingRight=4;overflow=hidden;points=[[0,0.5],[1,0.5]];portConstraint=eastwest;rotatable=0;whiteSpace=wrap;html=1;" parent="zr9PtpO677NZZhGRrjCr-202" vertex="1">
          <mxGeometry y="150" width="140" height="30" as="geometry" />
        </mxCell>
        <mxCell id="zr9PtpO677NZZhGRrjCr-208" value="paddle1/position" style="text;strokeColor=none;fillColor=none;align=left;verticalAlign=middle;spacingLeft=4;spacingRight=4;overflow=hidden;points=[[0,0.5],[1,0.5]];portConstraint=eastwest;rotatable=0;whiteSpace=wrap;html=1;" parent="zr9PtpO677NZZhGRrjCr-202" vertex="1">
          <mxGeometry y="180" width="140" height="30" as="geometry" />
        </mxCell>
        <mxCell id="zr9PtpO677NZZhGRrjCr-209" value="paddle2/position" style="text;strokeColor=none;fillColor=none;align=left;verticalAlign=middle;spacingLeft=4;spacingRight=4;overflow=hidden;points=[[0,0.5],[1,0.5]];portConstraint=eastwest;rotatable=0;whiteSpace=wrap;html=1;" parent="zr9PtpO677NZZhGRrjCr-202" vertex="1">
          <mxGeometry y="210" width="140" height="30" as="geometry" />
        </mxCell>
        <mxCell id="zr9PtpO677NZZhGRrjCr-210" value="motion/position" style="text;strokeColor=none;fillColor=none;align=left;verticalAlign=middle;spacingLeft=4;spacingRight=4;overflow=hidden;points=[[0,0.5],[1,0.5]];portConstraint=eastwest;rotatable=0;whiteSpace=wrap;html=1;" parent="zr9PtpO677NZZhGRrjCr-202" vertex="1">
          <mxGeometry y="240" width="140" height="30" as="geometry" />
        </mxCell>
        <mxCell id="zr9PtpO677NZZhGRrjCr-211" value="Pub" style="swimlane;fontStyle=0;childLayout=stackLayout;horizontal=1;startSize=30;horizontalStack=0;resizeParent=1;resizeParentMax=0;resizeLast=0;collapsible=1;marginBottom=0;whiteSpace=wrap;html=1;" parent="1" vertex="1">
          <mxGeometry x="362" y="-474" width="140" height="60" as="geometry" />
        </mxCell>
        <mxCell id="zr9PtpO677NZZhGRrjCr-212" value="Sub" style="swimlane;fontStyle=0;childLayout=stackLayout;horizontal=1;startSize=30;horizontalStack=0;resizeParent=1;resizeParentMax=0;resizeLast=0;collapsible=1;marginBottom=0;whiteSpace=wrap;html=1;" parent="1" vertex="1">
          <mxGeometry x="512" y="-474" width="140" height="240" as="geometry" />
        </mxCell>
        <mxCell id="zr9PtpO677NZZhGRrjCr-213" value="puck/position" style="text;strokeColor=none;fillColor=none;align=left;verticalAlign=middle;spacingLeft=4;spacingRight=4;overflow=hidden;points=[[0,0.5],[1,0.5]];portConstraint=eastwest;rotatable=0;whiteSpace=wrap;html=1;" parent="zr9PtpO677NZZhGRrjCr-212" vertex="1">
          <mxGeometry y="30" width="140" height="30" as="geometry" />
        </mxCell>
        <mxCell id="zr9PtpO677NZZhGRrjCr-214" value="player1/score" style="text;strokeColor=none;fillColor=none;align=left;verticalAlign=middle;spacingLeft=4;spacingRight=4;overflow=hidden;points=[[0,0.5],[1,0.5]];portConstraint=eastwest;rotatable=0;whiteSpace=wrap;html=1;" parent="zr9PtpO677NZZhGRrjCr-212" vertex="1">
          <mxGeometry y="60" width="140" height="30" as="geometry" />
        </mxCell>
        <mxCell id="zr9PtpO677NZZhGRrjCr-215" value="player2/score" style="text;strokeColor=none;fillColor=none;align=left;verticalAlign=middle;spacingLeft=4;spacingRight=4;overflow=hidden;points=[[0,0.5],[1,0.5]];portConstraint=eastwest;rotatable=0;whiteSpace=wrap;html=1;" parent="zr9PtpO677NZZhGRrjCr-212" vertex="1">
          <mxGeometry y="90" width="140" height="30" as="geometry" />
        </mxCell>
        <mxCell id="zr9PtpO677NZZhGRrjCr-216" value="motion/position" style="text;strokeColor=none;fillColor=none;align=left;verticalAlign=middle;spacingLeft=4;spacingRight=4;overflow=hidden;points=[[0,0.5],[1,0.5]];portConstraint=eastwest;rotatable=0;whiteSpace=wrap;html=1;" parent="zr9PtpO677NZZhGRrjCr-212" vertex="1">
          <mxGeometry y="120" width="140" height="30" as="geometry" />
        </mxCell>
        <mxCell id="zr9PtpO677NZZhGRrjCr-217" value="motion/presence" style="text;strokeColor=none;fillColor=none;align=left;verticalAlign=middle;spacingLeft=4;spacingRight=4;overflow=hidden;points=[[0,0.5],[1,0.5]];portConstraint=eastwest;rotatable=0;whiteSpace=wrap;html=1;" parent="zr9PtpO677NZZhGRrjCr-212" vertex="1">
          <mxGeometry y="150" width="140" height="30" as="geometry" />
        </mxCell>
        <mxCell id="zr9PtpO677NZZhGRrjCr-218" value="game/level" style="text;strokeColor=none;fillColor=none;align=left;verticalAlign=middle;spacingLeft=4;spacingRight=4;overflow=hidden;points=[[0,0.5],[1,0.5]];portConstraint=eastwest;rotatable=0;whiteSpace=wrap;html=1;" parent="zr9PtpO677NZZhGRrjCr-212" vertex="1">
          <mxGeometry y="180" width="140" height="30" as="geometry" />
        </mxCell>
        <mxCell id="zr9PtpO677NZZhGRrjCr-219" value="ai/activation" style="text;strokeColor=none;fillColor=none;align=left;verticalAlign=middle;spacingLeft=4;spacingRight=4;overflow=hidden;points=[[0,0.5],[1,0.5]];portConstraint=eastwest;rotatable=0;whiteSpace=wrap;html=1;" parent="zr9PtpO677NZZhGRrjCr-212" vertex="1">
          <mxGeometry y="210" width="140" height="30" as="geometry" />
        </mxCell>
        <mxCell id="zr9PtpO677NZZhGRrjCr-220" value="Pub" style="swimlane;fontStyle=0;childLayout=stackLayout;horizontal=1;startSize=30;horizontalStack=0;resizeParent=1;resizeParentMax=0;resizeLast=0;collapsible=1;marginBottom=0;whiteSpace=wrap;html=1;" parent="1" vertex="1">
          <mxGeometry x="114.5" y="-133" width="140" height="60" as="geometry" />
        </mxCell>
        <mxCell id="zr9PtpO677NZZhGRrjCr-221" value="Sub" style="swimlane;fontStyle=0;childLayout=stackLayout;horizontal=1;startSize=30;horizontalStack=0;resizeParent=1;resizeParentMax=0;resizeLast=0;collapsible=1;marginBottom=0;whiteSpace=wrap;html=1;" parent="1" vertex="1">
          <mxGeometry x="264.5" y="-133" width="140" height="90" as="geometry" />
        </mxCell>
        <mxCell id="zr9PtpO677NZZhGRrjCr-224" value="game/level" style="text;strokeColor=none;fillColor=none;align=left;verticalAlign=middle;spacingLeft=4;spacingRight=4;overflow=hidden;points=[[0,0.5],[1,0.5]];portConstraint=eastwest;rotatable=0;whiteSpace=wrap;html=1;" parent="zr9PtpO677NZZhGRrjCr-221" vertex="1">
          <mxGeometry y="30" width="140" height="30" as="geometry" />
        </mxCell>
        <mxCell id="zr9PtpO677NZZhGRrjCr-225" value="ai/activation" style="text;strokeColor=none;fillColor=none;align=left;verticalAlign=middle;spacingLeft=4;spacingRight=4;overflow=hidden;points=[[0,0.5],[1,0.5]];portConstraint=eastwest;rotatable=0;whiteSpace=wrap;html=1;" parent="zr9PtpO677NZZhGRrjCr-221" vertex="1">
          <mxGeometry y="60" width="140" height="30" as="geometry" />
        </mxCell>
        <mxCell id="zr9PtpO677NZZhGRrjCr-227" value="" style="endArrow=classic;html=1;rounded=0;exitX=0.367;exitY=1.017;exitDx=0;exitDy=0;entryX=0.379;entryY=-0.017;entryDx=0;entryDy=0;exitPerimeter=0;entryPerimeter=0;" parent="1" source="zr9PtpO677NZZhGRrjCr-240" target="zr9PtpO677NZZhGRrjCr-243" edge="1">
          <mxGeometry width="50" height="50" relative="1" as="geometry">
            <mxPoint x="-373" y="-417" as="sourcePoint" />
            <mxPoint x="-150" y="-167" as="targetPoint" />
          </mxGeometry>
        </mxCell>
        <mxCell id="zr9PtpO677NZZhGRrjCr-228" value="" style="endArrow=classic;html=1;rounded=0;entryX=0.592;entryY=0.983;entryDx=0;entryDy=0;entryPerimeter=0;exitX=0.621;exitY=0.013;exitDx=0;exitDy=0;exitPerimeter=0;" parent="1" source="zr9PtpO677NZZhGRrjCr-243" target="zr9PtpO677NZZhGRrjCr-240" edge="1">
          <mxGeometry width="50" height="50" relative="1" as="geometry">
            <mxPoint x="-50" y="-231" as="sourcePoint" />
            <mxPoint x="-343" y="-417" as="targetPoint" />
          </mxGeometry>
        </mxCell>
        <mxCell id="zr9PtpO677NZZhGRrjCr-229" value="Pub" style="swimlane;fontStyle=0;childLayout=stackLayout;horizontal=1;startSize=30;horizontalStack=0;resizeParent=1;resizeParentMax=0;resizeLast=0;collapsible=1;marginBottom=0;whiteSpace=wrap;html=1;" parent="1" vertex="1">
          <mxGeometry x="-202.5" y="-133" width="140" height="60" as="geometry" />
        </mxCell>
        <mxCell id="zr9PtpO677NZZhGRrjCr-230" value="Sub" style="swimlane;fontStyle=0;childLayout=stackLayout;horizontal=1;startSize=30;horizontalStack=0;resizeParent=1;resizeParentMax=0;resizeLast=0;collapsible=1;marginBottom=0;whiteSpace=wrap;html=1;" parent="1" vertex="1">
          <mxGeometry x="-52.5" y="-133" width="140" height="60" as="geometry" />
        </mxCell>
        <mxCell id="zr9PtpO677NZZhGRrjCr-231" value="depth/feed" style="text;strokeColor=none;fillColor=none;align=left;verticalAlign=middle;spacingLeft=4;spacingRight=4;overflow=hidden;points=[[0,0.5],[1,0.5]];portConstraint=eastwest;rotatable=0;whiteSpace=wrap;html=1;" parent="zr9PtpO677NZZhGRrjCr-230" vertex="1">
          <mxGeometry y="30" width="140" height="30" as="geometry" />
        </mxCell>
        <mxCell id="zr9PtpO677NZZhGRrjCr-232" value="" style="endArrow=classic;html=1;rounded=0;exitX=0.387;exitY=1.002;exitDx=0;exitDy=0;exitPerimeter=0;entryX=0.383;entryY=0.018;entryDx=0;entryDy=0;entryPerimeter=0;" parent="1" source="zr9PtpO677NZZhGRrjCr-237" target="zr9PtpO677NZZhGRrjCr-240" edge="1">
          <mxGeometry width="50" height="50" relative="1" as="geometry">
            <mxPoint x="-101" y="-930" as="sourcePoint" />
            <mxPoint x="-100" y="-481" as="targetPoint" />
          </mxGeometry>
        </mxCell>
        <mxCell id="zr9PtpO677NZZhGRrjCr-233" value="" style="endArrow=classic;html=1;rounded=0;exitX=0.592;exitY=0;exitDx=0;exitDy=0;exitPerimeter=0;entryX=0.605;entryY=0.985;entryDx=0;entryDy=0;entryPerimeter=0;" parent="1" source="zr9PtpO677NZZhGRrjCr-240" target="zr9PtpO677NZZhGRrjCr-237" edge="1">
          <mxGeometry width="50" height="50" relative="1" as="geometry">
            <mxPoint x="-76" y="-481" as="sourcePoint" />
            <mxPoint x="-74" y="-671" as="targetPoint" />
          </mxGeometry>
        </mxCell>
        <mxCell id="zr9PtpO677NZZhGRrjCr-234" value="Pub" style="swimlane;fontStyle=0;childLayout=stackLayout;horizontal=1;startSize=30;horizontalStack=0;resizeParent=1;resizeParentMax=0;resizeLast=0;collapsible=1;marginBottom=0;whiteSpace=wrap;html=1;" parent="1" vertex="1">
          <mxGeometry x="-207.5" y="-808" width="140" height="60" as="geometry" />
        </mxCell>
        <mxCell id="zr9PtpO677NZZhGRrjCr-235" value="Sub" style="swimlane;fontStyle=0;childLayout=stackLayout;horizontal=1;startSize=30;horizontalStack=0;resizeParent=1;resizeParentMax=0;resizeLast=0;collapsible=1;marginBottom=0;whiteSpace=wrap;html=1;" parent="1" vertex="1">
          <mxGeometry x="-57.5" y="-808" width="140" height="60" as="geometry" />
        </mxCell>
        <mxCell id="zr9PtpO677NZZhGRrjCr-236" value="#" style="text;strokeColor=none;fillColor=none;align=left;verticalAlign=middle;spacingLeft=4;spacingRight=4;overflow=hidden;points=[[0,0.5],[1,0.5]];portConstraint=eastwest;rotatable=0;whiteSpace=wrap;html=1;" parent="zr9PtpO677NZZhGRrjCr-235" vertex="1">
          <mxGeometry y="30" width="140" height="30" as="geometry" />
        </mxCell>
        <mxCell id="zr9PtpO677NZZhGRrjCr-237" value="mqtt-explorer&lt;br&gt;./src/mqtt-explorer&lt;br&gt;[port: 4000]" style="rounded=1;whiteSpace=wrap;html=1;imageWidth=24;glass=0;shadow=1;" parent="1" vertex="1">
          <mxGeometry x="-150" y="-737" width="175" height="75" as="geometry" />
        </mxCell>
        <mxCell id="zr9PtpO677NZZhGRrjCr-238" value="ai-paddle-control&lt;br&gt;./src/ai-paddle-control" style="rounded=1;whiteSpace=wrap;html=1;imageWidth=24;glass=0;shadow=1;" parent="1" vertex="1">
          <mxGeometry x="-464" y="-737" width="175" height="75" as="geometry" />
        </mxCell>
        <mxCell id="zr9PtpO677NZZhGRrjCr-239" value="clocktower-visualizer&lt;br&gt;./src/clocktower-visualizer&lt;br&gt;[port: 5003]" style="rounded=1;whiteSpace=wrap;html=1;imageWidth=24;glass=0;shadow=1;" parent="1" vertex="1">
          <mxGeometry x="172" y="-476" width="175" height="75" as="geometry" />
        </mxCell>
        <mxCell id="zr9PtpO677NZZhGRrjCr-240" value="mqtt-broker&lt;br&gt;./src/mqtt-broker&lt;br&gt;[mqtt port: 1883]&lt;br&gt;[ws port: 9001]" style="rounded=1;whiteSpace=wrap;html=1;imageWidth=24;glass=0;shadow=1;" parent="1" vertex="1">
          <mxGeometry x="-145" y="-476" width="175" height="75" as="geometry" />
        </mxCell>
        <mxCell id="zr9PtpO677NZZhGRrjCr-241" value="game-engine&lt;br&gt;./src/game-engine" style="rounded=1;whiteSpace=wrap;html=1;imageWidth=24;glass=0;shadow=1;" parent="1" vertex="1">
          <mxGeometry x="-460" y="-476" width="175" height="75" as="geometry" />
        </mxCell>
        <mxCell id="zr9PtpO677NZZhGRrjCr-242" value="neural-net-visualizer&lt;br&gt;./src/neural-net-visualizer&lt;br&gt;[port: 5002]" style="rounded=1;whiteSpace=wrap;html=1;imageWidth=24;glass=0;shadow=1;" parent="1" vertex="1">
          <mxGeometry x="172" y="-221" width="175" height="75" as="geometry" />
        </mxCell>
        <mxCell id="zr9PtpO677NZZhGRrjCr-243" value="human-visualizer&lt;br&gt;./src/human-visualizer&lt;br&gt;[port: 5001]" style="rounded=1;whiteSpace=wrap;html=1;imageWidth=24;glass=0;shadow=1;" parent="1" vertex="1">
          <mxGeometry x="-150" y="-222" width="175" height="75" as="geometry" />
        </mxCell>
        <mxCell id="zr9PtpO677NZZhGRrjCr-244" value="human-paddle-control&lt;br&gt;./src/human-paddle-control" style="rounded=1;whiteSpace=wrap;html=1;imageWidth=24;glass=0;shadow=1;" parent="1" vertex="1">
          <mxGeometry x="-460" y="-221" width="175" height="75" as="geometry" />
        </mxCell>
        <mxCell id="zr9PtpO677NZZhGRrjCr-246" value="&lt;b&gt;&lt;font style=&quot;font-size: 16px;&quot;&gt;Discovery World Containerized Application&lt;/font&gt;&lt;/b&gt;&lt;br&gt;MQTT Pub/Sub" style="text;html=1;strokeColor=none;fillColor=none;align=center;verticalAlign=middle;whiteSpace=wrap;rounded=0;" parent="1" vertex="1">
          <mxGeometry x="-232.5" y="-1079" width="340" height="30" as="geometry" />
        </mxCell>
      </root>
    </mxGraphModel>
  </diagram>
</mxfile>
